<svg width="24" height="24" viewBox="0 0 24 24" fill="none" xmlns="http://www.w3.org/2000/svg"><path d="M5.31 5H2.31M5.55 5L7.71 12.84C7.89029 13.4582 8.26474 14.0021 8.77799 14.3911C9.29123 14.78 9.91603 14.9936 10.56 15H19.3V5H5.55ZM12.31 18.5C12.31 19.3284 11.6384 20 10.81 20C9.98157 20 9.31 19.3284 9.31 18.5C9.31 17.6716 9.98157 17 10.81 17C11.6384 17 12.31 17.6716 12.31 18.5ZM19.31 18.5C19.31 19.3284 18.6384 20 17.81 20C16.9816 20 16.31 19.3284 16.31 18.5C16.31 17.6716 16.9816 17 17.81 17C18.6384 17 19.31 17.6716 19.31 18.5Z" stroke="black" stroke-linecap="round" stroke-linejoin="round"/><path d="M13.1 8.5C15.4472 8.5 17.35 6.59721 17.35 4.25C17.35 1.90279 15.4472 0 13.1 0C10.7528 0 8.84998 1.90279 8.84998 4.25C8.84998 6.59721 10.7528 8.5 13.1 8.5Z" fill="#7F461B"/></svg>